<svg xmlns="http://www.w3.org/2000/svg" viewBox="0 0 521.54 424.45"><defs><style>.cls-1{fill:#030307;}.cls-2{fill:#1700de;}.cls-3{fill:#fff;}.cls-4{fill:#eff303;}</style></defs><g id="Layer_2" data-name="Layer 2"><g id="Layer_1-2" data-name="Layer 1"><g id="bC7PZ3"><path class="cls-1" d="M122.32,324.59c-15.74-1.68-30.11,3.36-44.44,8.85-4.47,1.71-3.19,5.47-3.48,8.36-.32,3.28-1.46,4.4-4.59,5-11.21,2.26-22.39,4.7-33.5,7.43-3.89.95-4.26-.19-3.6-3.51a49.37,49.37,0,0,0,.43-7c-4.05.81-7.74,1.11-11.1,2.33s-3.24-.38-3.05-2.65q1.79-21.6,3.56-43.18c1.19-14.42,2.3-28.85,3.6-43.25.29-3.22-.46-4.48-3.9-4a42.82,42.82,0,0,1-11.31,0c4-1.22,8.11-2.31,12.07-3.73,1.4-.5,4.07-.25,3.83-2.38-.27-2.32-2.74-1.17-4.15-1.14-6.76.15-13.58-.84-20.28.88a1.93,1.93,0,0,1-2.41-1,18,18,0,0,1,9.68-1.85c4.31,2.29,9,.67,13.41,1.1,3.05.29,4.14-1.24,3.82-4.13-.14-1.3-.15-2.61-.23-3.92,1.49-1.4,1.31-3.25,1.46-5.06,1.93-23.34,3.94-46.68,5.82-70a4.21,4.21,0,0,1,2.95-4c5.49-2.38,11-4.84,16.43-7.27,8.69-1.93,17-5.48,25.84-6.75,11.71-1.66,23.42-2.75,34.56,2.77,7.46,3.69,13.77,9.64,22.26,11.3.58,4.11,5,5.28,6.54,9.18,2.06-3.32,3.75-6.28,5.68-9.06.91-1.31.55-2-.48-2.81,6.72-4.76,10.18-12.48,16.21-17.87,1.29-1.15.55-2.83.89-4.2.81-3.19-2-6.34,0-9.47,2.47,3,.75,6.8,2,10a5.45,5.45,0,0,0-.6.44s.12.27.18.41l.49-.74a25.69,25.69,0,0,0,3.67-2.34c7.93-7.15,17.25-11.78,27.22-15.28a93.94,93.94,0,0,1,31.46-4.17,18.68,18.68,0,0,0,8.62-1.38c-.35,1.94.83,2.63,2.42,3.09a32.11,32.11,0,0,1,11.38,6c.86.69,1.77,1.9,3,1.07s.53-2.15.28-3.21c-.72-3.1.63-4.69,3.37-6.1,6.54-3.38,12.89-7.12,19.32-10.72,5.26-3,10.48-6.12,15.79-9.06,8.19-4.54,8.28-4.5,9.25,4.86.38,3.69,1.68,4.62,5.16,2.83,3-1.52,4.83-4.52,8.12-5.46.36,12,2.34,23.78,3.42,35.69.54,6,1.31,12,2,18.53,1.54-1.5,3.3-1.6,3.46-3.45.42-4.66,3.55-8.38,4.5-12.84.5-2.34,1.78-3.19,4.09-3.42q15.86-1.63,31.68-3.55c2.76-.34,3.76.49,4,3.3.18,2-.07,5.34,2.41,5.45,3.5.15,8.75.7,10.24-1.83,2.11-3.6,4.74-8.08,3-13,4-11.43,5.89-23.39,9.25-35,1-3.37.67-6.58-2.47-9.46-4.43-4.06-7.25-9.37-9.39-15-4.47-11.89-3.65-24.21-3.36-36.51,2.13,1,2.52-1,3.32-2.07,3.72-4.82,7.34-9.71,11.9-15.77-2.44,22.72-5.45,44.13,3.15,65.42,1.1-2.17,2.19-3.41,4.34-3.94,14.64-3.56,29.22-7.34,44.13-11.12.32,4.24-2.11,7.66-2.65,11.82,4.06,0,7.66-1.88,11.5-2.46.6-.09,1.61-.66,1.61-1,0-6.53,5-4.42,8.2-4.46,14.46-.22,28.92-.1,43.86-.1-.33-.74-.09-.47-.13-.25-1.05,7.43-1.05,7.42,6.6,7.21s7.54-.23,5.85,7.43q-12,53.89-23.81,107.82c-.28,1.3-2.12,3.27,1,3.79-.89.86-2.93,1-2.6,2.56.43,2.06,2.78,1.09,4.09,1.88,6.64,2.34,13.73,2.89,20.51,5.59-6.76,1.23-13.53,2.34-20.25,3.74-3.12.64-7.05-.11-8,4.86-.35,1.79-3.29,1-5,.95C470.1,203.6,456.07,210.39,443,219c-19.43,12.69-24,29.81-14.42,50.94,7.61,16.76,19.73,30.2,32.45,43.14,3,3,6.19,5.85,8.93,9.29-8.28-2.68-16.16-6-24.42-8.14-20.45-5.36-40.91-7.11-61.28.24-24,8.67-37,26.49-41.22,51.08-2.53,14.75-1.5,29.5,1.55,44.12.3,1.44.42,2.93.72,5.1-5-3.87-7.22-9.65-12.48-12.23-3.51-2.53-1.74-6.42-2.41-9.65a89.78,89.78,0,0,1,2.41-45.78c7-22,22.09-36.31,44.18-42.09,20.19-5.28,40.52-3.6,60.38,3l17,5.59c-.25-1-.22-1.44-.41-1.64-1.5-1.56-3-3.07-4.56-4.61-13-13.16-25.39-26.77-33.41-43.76-9.76-20.71-5.81-37.58,12.33-50.91a86,86,0,0,1,26.13-12.9c1.25-.38,3.12-.24,2.82-2s-2.22-.83-3.42-.91c-2-.14-4,.11-6-.07s-3.53-1.19-2.61-3.64c2.44-6.45,2.34-13.33,3.49-20,.28-1.58.64-3.36-1.14-4.52a70.33,70.33,0,0,1-13.3-11.23c-1.45-1.57-3-1.46-3.67.89-3,10.31-7.24,20.28-9,31-1.23,3.11-3.67,5.92-2.39,9.66a24.23,24.23,0,0,0-4.78,8.84c-4.59,14.72-9.24,29.43-13.64,44.2a7.86,7.86,0,0,1-5,5.57c-4.24,1.78-9.16,1.4-13,4.3-4.27-.41-8.2,1.24-12.11,2.43-3.63,1.1-4.89.16-5.55-3.4-1.11-6-2.2-6.77-7.89-4.84-4.23,1.44-5.55.05-6.14-3.89-.79-5.31-2-10.56-3-15.83-4.28,11.15-7.78,22.19-11.22,33.26-.67,2.16-1.23,3.93-4.13,4-12.9.47-25.07,4.47-37.28,8.14-1.9.58-3,.94-3.33-1.58-.16-1.44-1.2-2.9-1-4.25.73-5.65-2.49-4.89-5.94-3.89-5.92,1.71-5.4,1.54-7.57-4.28-1-2.59,1.24-7.23-2.61-7.55-3.13-.26-2.57,4.38-3.86,6.7-16.46,29.58-42.76,45.26-74.86,51.37-9.56,1.82-20.13,3.66-30.12,0-3-1.11-3.81.2-4.27,2.8-1.59,9-4.59,17.61-7.83,26.13-.39,1-2,2.14-.54,3.54,1,2.62-1.41,2.39-2.39,3.7-1.34-2.52-.34-4.29.43-6.1A151.14,151.14,0,0,0,160,321.74c.57-2.54.42-4.28-2.13-5.82-5.35-3.23-10.4-7-15.73-10.25-3.5-2.15-7.56-3.6-9.74-7.34a7.16,7.16,0,0,0-7.35-3.84c2.49-.94,3.45-2.3,2.13-5.07a76.47,76.47,0,0,1-3.67-9.7c-1.1-3.43-2.44-3.26-4.41-.69-2.28,3-3.69,6.65-7,8.76,0-3.13,2.76-4.73,4-7.16,1.62-3.19,5-5.6,4.89-9.54-.26-7.13-.89-14.23-1.3-21.35-.16-2.79-.82-3.81-3.48-1.69C106,256.13,95,262.86,83.85,269.41c-1.4.82-2.89,1.67-3.07,3.64q-2,22.05-4.1,44.08c-.35,3.69,1.41,3.85,4.18,2.86a63.2,63.2,0,0,1,22-3.64C110.34,316.42,117.88,317,122.32,324.59ZM270,187.3c1.54,9.78,3.12,19.56,4.62,29.34q3.61,23.67,7.15,47.35c.45,3.07,1.56,4.26,5,3.14a134.13,134.13,0,0,1,26.76-5.76c4-.46,5.67-2.07,6.77-5.72q7.28-24.14,15-48.14c2.05-6.32,3.5-12.91,6.78-19.54a41.82,41.82,0,0,1,1.35,4.08c3.77,18,7.63,36.09,11.15,54.2.73,3.76,1.92,5.42,5.83,4.36,5.93-1.6,11.84-3.29,17.84-4.58,3.8-.81,5.4-3.11,6.42-6.56,3.69-12.44,7.54-24.83,11.37-37.23q20.83-67.5,41.69-135c1.42-4.62.74-5.54-4.06-4.41-9.37,2.18-18.64,4.79-28,7.11a5.54,5.54,0,0,0-4.52,4.61c-2.07,8.91-4.25,17.79-6.41,26.67q-9.9,40.69-19.85,81.39c-.18.74.16,2.15-1.52,2.07-.13-.66-.29-1.3-.4-2q-3.88-24.42-7.74-48.83c-.39-2.46-.65-4.62-4.12-4.17-8.24,1.06-16.51,2-24.78,2.85a3.93,3.93,0,0,0-3.85,3.1c-5.25,15.59-10.47,31.19-16.07,46.65-1.92,5.28-3,11-6.44,16-.43-.75-.69-1-.72-1.28q-5.17-48.15-10.3-96.3c-.62-5.85-1.24-6.28-6.15-3.55-9.7,5.39-19.34,10.89-29.13,16.11-3.52,1.87-4.35,4-3.59,8,1.77,9.26,2.85,18.64,4.21,28a116.63,116.63,0,0,1-6.74-13.64c-4.58-10.53-12.19-17.75-23.8-18.8-28.56-2.57-52.65,6.64-71.28,28.87-17.72,21.13-28,45.77-33.61,72.48-3.94,18.81-6,37.72-2.17,56.94,4.19,21,16.41,31.52,37.66,31.67,9.06.06,17.86-1.48,26.62-3.6,37.84-9.16,60.6-33.81,72.23-70C268,218.25,267.87,202.72,270,187.3Zm-137.59-.08c0-25.08-15.37-40.69-38.72-40.54-18.85.12-36,7.06-53,14.19-2.15.9-2.69,2.8-2.86,4.87-1,12.27-2.07,24.53-3,36.8-1.49,18.73-2.86,37.47-4.41,56.2q-3.2,38.79-6.61,77.54c-.39,4.29,1.28,4.79,4.88,3.88,7.25-1.83,14.5-3.83,21.87-4.92,4.53-.68,5.63-2.81,6-6.81,1.81-20.39,4.1-40.74,5.58-61.15.41-5.68,2.76-8.41,7.39-11,18.06-10.09,35.07-21.7,48.63-37.62C126.18,209.17,132.74,198.84,132.4,187.22Zm328.91,4.84c3,0,6,.07,9,0,2.59-.08,4.09-1.2,4.72-4.07Q488.24,127.3,501.76,66.7c.74-3.3-.28-4.15-3.37-4.06-11.14.34-22.28.63-33.42.77-3.22.05-4.38,1.32-4.42,4.48-.27,19.62-1.74,39.18-2.92,58.76-1.14,18.75-3.12,37.42-5.41,56.06C450.93,193.24,450.7,193.22,461.31,192.06Zm-11.66-25.88c1.91-15.88,3.28-31.29,4.28-48C439.23,138.37,438,153.7,449.65,166.18Zm5.19-81.6-1.29-.29c-1.17,3.36-2.41,6.69-3.45,10.08-.32,1-.64,2.55.65,3.1,1.48.62,2.41-.48,3.08-1.77C455.71,92.1,454.93,88.32,454.84,84.58Z"/><path class="cls-2" d="M125,294.49a7.16,7.16,0,0,1,7.35,3.84c2.18,3.74,6.24,5.19,9.74,7.34,5.33,3.27,10.38,7,15.73,10.25,2.55,1.54,2.7,3.28,2.13,5.82a151.14,151.14,0,0,1-8.32,26.55c-.77,1.81-1.77,3.58-.43,6.1,1-1.31,3.44-1.08,2.41-3.69,3.86-3.66,7.56-7.49,11.59-10.93,6.25-5.34,12.32-11.09,20.93-12.49a31.47,31.47,0,0,1,12.78,2,16.59,16.59,0,0,1,5.66,5.19c4.75,6.79,6.91,14.46,8.81,22.35.39,1.63,0,4.76,2.28,4.81,2.17.05,3.6-2.3,4.39-4.51a2.52,2.52,0,0,0,.07-.49c3.54-3.23,7-6.5,8.9-11.06l.78-.85a9.12,9.12,0,0,0,5.14-5.14l-.07.08a1.07,1.07,0,0,0,1.1-1.05l-.08.07c2-.75,4.18-1.35,4.76-3.88a1,1,0,0,1,.67-.4,2.39,2.39,0,0,0,2.28-.53A41.4,41.4,0,0,1,270,327.6l1.24.25.14.28.11-.28,2.47.09L295,338.69l-.06-.05A5.08,5.08,0,0,0,300,342.7l-.06-.05c-.17,3.18,2.93,3.39,4.52,5,1.85,1.84,3.66,3.72,5.57,5.5.74.68,1.35,2.12,2.77,1.08a2.29,2.29,0,0,0,.89-3c-1.41-2.9-.9-6-1.2-9a50.23,50.23,0,0,0-.06-14.64,50.62,50.62,0,0,1,6.59-23l.53.17-.43-.43c.33-.53.67-1,1-1.57,0,.48.26.59.53.21.09-.14-.13-.51-.21-.77l.73-1.2.33.06-.33-.09.9-1.12.53.28-.23-.67.77-1.16c.74.4.78-.1.81-.62l-.08.09c2.11-.51,3.15-2.36,4.53-3.73a36.47,36.47,0,0,1,11.73-8.23c15.83-6.38,32.05-5.95,48.43-1.74,6.55,1.69,12.59,4.93,19.47,6-5.2-6.29-10.55-12.3-16.16-18.06-2.59-2.66-3.62-6.86-7.78-8l-1.23-2.1c3.84-2.9,8.76-2.52,13-4.3a7.86,7.86,0,0,0,5-5.57c4.4-14.77,9.05-29.48,13.64-44.2a24.23,24.23,0,0,1,4.78-8.84c6.67-.59,13.3-1.39,20.51-4.25-6.15-3.41-12.46-3.41-18.12-5.41,1.72-10.69,5.94-20.66,9-31,.69-2.35,2.22-2.46,3.67-.89a70.33,70.33,0,0,0,13.3,11.23c1.78,1.16,1.42,2.94,1.14,4.52-1.15,6.67-1.05,13.55-3.49,20-.92,2.45.51,3.45,2.61,3.64s4-.07,6,.07c1.2.08,3.12-.78,3.42.91s-1.57,1.57-2.82,2a86,86,0,0,0-26.13,12.9c-18.14,13.33-22.09,30.2-12.33,50.91,8,17,20.42,30.6,33.41,43.76,1.52,1.54,3.06,3.05,4.56,4.61.19.2.16.61.41,1.64l-17-5.59c-19.86-6.56-40.19-8.24-60.38-3-22.09,5.78-37.2,20.08-44.18,42.09a89.78,89.78,0,0,0-2.41,45.78c.67,3.23-1.1,7.12,2.41,9.65-2.39,2.52-3.87.9-5.54-1a154.7,154.7,0,0,0-25.62-23.82c-2.6-1.9-5.85-2-8.17-4.12a2.28,2.28,0,0,0-1.44-2.36c-9.45-5-19.58-7.75-30.17-6.7-26.18,2.59-42.93,18.58-55.35,40.31-1.89,3.2-2.94,8.85-6.48,8.51s-2.31-6.05-3.25-9.35C194.23,395,191.91,386,187,378c-1.39-2.25-2.75-4.54-5-6.1-3.67-5-8.6-7.25-14.79-7.5-10.85-.45-19.33,4.83-27.45,11-2.14,1.61-4.89,3-5.19,6.22-.8,0-1.55.08-1.52,1.17l.16-.11c-5.27,2.7-8.67,7.51-12.79,11.49-1.8,1.74-3.48,3.48-6.31,4.07.49-4.76,3-8.76,4.48-13.07,4.86-14.13,9.69-28.27,9.35-43.49-.13-6.2-1.1-12.26-5.6-17.09-4.44-7.58-12-8.17-19.48-8.24a63.2,63.2,0,0,0-22,3.64c-2.77,1-4.53.83-4.18-2.86q2.13-22,4.1-44.08c.18-2,1.67-2.82,3.07-3.64,11.14-6.55,22.17-13.28,32.3-21.36,2.66-2.12,3.32-1.1,3.48,1.69.41,7.12,1,14.22,1.3,21.35.15,3.94-3.27,6.35-4.89,9.54-1.24,2.43-4,4-4,7.16l0-.06c-4.86,3.95-9.47,8.11-12.15,14l.06-.08c-1-.26-1.22.18-1,1.06l0-.05c-2.34-.38-2.86,1.24-3.78,3.55,2.82-1,5.62.46,7.3-2.34l1.3-.74a16.08,16.08,0,0,0,10.09-4.33A37.41,37.41,0,0,1,125,294.49ZM443,193.44a6.65,6.65,0,0,0-1.11-.48c-.08,0-.4.52-.36.56a9,9,0,0,0,1,.83Z"/><path class="cls-2" d="M136,157.78c-8.49-1.66-14.8-7.61-22.26-11.3-11.14-5.52-22.85-4.43-34.56-2.77C70.32,145,62,148.53,53.34,150.46c-7.43-5.53-15.32-10.37-23.09-16.19l33.83,3.55a65.73,65.73,0,0,0,23.65-.07c6.23-1.46,12.63-1.92,18.86-3.53,24-6.2,28.75-24,24.88-42.78-3.1-15-9.55-28.74-16.79-42.13-.4-.72-2.32-1.28-.78-2.64,1.19-1,2.07-.15,3,.49,2.34,1.54,4.72,3,7.08,4.53.34,0,.69.09,1,.15l-.07-.06c0,.73.23,1.26,1.12,1l0,0a1.55,1.55,0,0,0,.08,2.23c5.57,3.36,10.24,8.28,16.84,9.85,15.95,10.12,32.93,17.56,51.82,20.06,18.69,2.47,32.72-5.65,43.78-19.79A117.26,117.26,0,0,0,258.18,28c.49-1.54.4-4.12,2.84-4.18,2.69-.06,2,2.71,2.62,4.17,1.8,3.9,3.21,8,4.78,12,2.46,10.27,9,17.63,16.89,24.12,6.44,5.31,13.69,5.42,21.3,3.67,23.42-7.53,38.9-25.13,54.19-42.9,6.23-7.23,12.63-14.35,17.62-22.58A12.64,12.64,0,0,1,380.77,0a4.33,4.33,0,0,1,.82,3.55c-1.59,6.25-.82,12.85-2.66,19.08-.29,12.3-1.11,24.62,3.36,36.51,2.14,5.68,5,11,9.39,15,3.14,2.88,3.45,6.09,2.47,9.46-3.36,11.6-5.29,23.56-9.25,35-3.85-2.09-8.1-.18-12.09-1.29-14.65-4-19.83-12.87-23-29a94.59,94.59,0,0,1-.27-21.14l.55-5.41c2.72-2.17,1.12-4.69,1.06-7.86A31.84,31.84,0,0,1,348,58c-7.62,7-13.45,15.51-19.66,23.69A88.08,88.08,0,0,1,317,92.87c-.7-.05-1.07.26-1,1l.08-.07c-3.29.94-5.16,3.94-8.12,5.46-3.48,1.79-4.78.86-5.16-2.83-1-9.36-1.06-9.4-9.25-4.86-5.31,2.94-10.53,6-15.78,9.06A18.4,18.4,0,0,1,275.33,99c-6.45-6.19-10-13.95-12.15-22.48.48-.21.54-.53.16-.86-.06-.06-.37.16-.57.25l-.71-.71c.76-.9,1-2-.32-2.32-1.94-.53-2.63,1.2-3.15,2.52A142.47,142.47,0,0,1,241,107.47l-3.06,3a18.68,18.68,0,0,1-8.62,1.38,93.94,93.94,0,0,0-31.46,4.17C187,110.93,176.12,105.89,166.3,98.9c-2.28-3.26-5.54-5-9.28-5.93-.85-.31-1.37-1.46-2.52-1-.54-.61-1.21-1.49-2-.71a2.56,2.56,0,0,0-.17,3.17c2.2,3.81,4.43,7.61,6.65,11.41a78.93,78.93,0,0,1,5.9,17.71c-2,3.13.76,6.28,0,9.47-.34,1.37.4,3-.89,4.2-6,5.39-9.49,13.11-16.21,17.87Z"/><path class="cls-1" d="M434.83,245.37c0-13.37,11.94-28.45,25-31.33,6.16-1.36,11.49.43,16,4.88,1.25,1.23,2.24,2.52,4.27,3.1,12.4,3.55,18.16,14.48,14.33,26.78a36.76,36.76,0,0,1-17.95,21.73c-7.57,4.22-16.15,3.09-23-3.14a16.69,16.69,0,0,0-5.77-3.5C438.73,260.64,434.86,255,434.83,245.37ZM477,234c.18-10.88-7.76-17.57-18.12-15.26s-21.55,18.57-20,29.22c1.2,8.13,9.27,14.08,16.89,12.44C466.21,258.2,476.83,245,477,234Z"/><path class="cls-1" d="M206.49,404.78c12.42-21.73,29.17-37.72,55.35-40.31,10.59-1.05,20.72,1.73,30.17,6.7a2.28,2.28,0,0,1,1.44,2.36c-.5.66-.95,1.33-2,1-21.41-6.38-38.87,1.29-54.38,15.47-10.51,9.61-18.34,21.29-25.38,34.44C209.57,417.51,209.85,410.63,206.49,404.78Z"/><path class="cls-1" d="M134.55,381.62c.3-3.26,3-4.61,5.19-6.22,8.12-6.14,16.6-11.42,27.45-11,6.19.25,11.12,2.52,14.79,7.5-10.22-.73-18.72,3.67-26.74,9.22-9.36,6.47-17.36,14.46-25.09,22.75a24.62,24.62,0,0,1-5.8,5c2.38-6.15,4.88-12.27,7.06-18.49.86-2.48,2.73-4.82,1.78-7.74l-.16.11C134.25,383.32,134.08,382.06,134.55,381.62Z"/><path class="cls-1" d="M306.61,67.74c-7.61,1.75-14.86,1.64-21.3-3.67-7.87-6.49-14.43-13.85-16.89-24.12l5-12.43A154.07,154.07,0,0,0,284.72,56C289.49,65.2,296,70.07,306.61,67.74Z"/><path class="cls-2" d="M26.68,236.81c.08,1.31.09,2.62.23,3.92.32,2.89-.77,4.42-3.82,4.13-4.46-.43-9.1,1.19-13.41-1.1C14.87,240.26,20.82,238.63,26.68,236.81Z"/><path class="cls-1" d="M143,64.81c-6.6-1.57-11.27-6.49-16.84-9.85a1.55,1.55,0,0,1-.08-2.23A127.46,127.46,0,0,1,143,64.81Z"/><path class="cls-1" d="M87.73,137.75a65.73,65.73,0,0,1-23.65.07Z"/><path class="cls-2" d="M499.28,189.39c-1.31-.79-3.66.18-4.09-1.88-.33-1.61,1.71-1.7,2.6-2.56a2.18,2.18,0,0,1,2.39.63c-.42,1.8,2.63,1.11,2.12,3Z"/><path class="cls-1" d="M502.3,188.55c.51-1.86-2.54-1.17-2.12-3,2.09-.25,3.55,2,6,1C505.22,188.8,503.69,188.49,502.3,188.55Z"/><path class="cls-1" d="M126.1,52.77c-.89.27-1.1-.26-1.12-1Z"/><path class="cls-1" d="M125.05,51.84c-.34-.06-.69-.11-1-.15C124.48,50.89,124.77,51.35,125.05,51.84Z"/><path class="cls-3" d="M270,187.3c-2.12,15.42-2,30.95-6.8,45.86C251.56,269.39,228.8,294,191,303.2c-8.76,2.12-17.56,3.66-26.62,3.6-21.25-.15-33.47-10.66-37.66-31.67-3.83-19.22-1.77-38.13,2.17-56.94,5.6-26.71,15.89-51.35,33.61-72.48,18.63-22.23,42.72-31.44,71.28-28.87,11.61,1,19.22,8.27,23.8,18.8a116.63,116.63,0,0,0,6.74,13.64c-1.36-9.33-2.44-18.71-4.21-28-.76-4,.07-6.11,3.59-8,9.79-5.22,19.43-10.72,29.13-16.11,4.91-2.73,5.53-2.3,6.15,3.55q5.1,48.17,10.3,96.3c0,.28.29.53.72,1.28,3.48-5,4.52-10.74,6.44-16,5.6-15.46,10.82-31.06,16.07-46.65a3.93,3.93,0,0,1,3.85-3.1c8.27-.87,16.54-1.79,24.78-2.85,3.47-.45,3.73,1.71,4.12,4.17Q369,158.32,373,182.73c.11.65.27,1.29.4,2,1.68.08,1.34-1.33,1.52-2.07q10-40.68,19.85-81.39c2.16-8.88,4.34-17.76,6.41-26.67a5.54,5.54,0,0,1,4.52-4.61c9.34-2.32,18.61-4.93,28-7.11,4.8-1.13,5.48-.21,4.06,4.41q-20.83,67.5-41.69,135c-3.83,12.4-7.68,24.79-11.37,37.23-1,3.45-2.62,5.75-6.42,6.56-6,1.29-11.91,3-17.84,4.58-3.91,1.06-5.1-.6-5.83-4.36-3.52-18.11-7.38-36.15-11.15-54.2a41.82,41.82,0,0,0-1.35-4.08c-3.28,6.63-4.73,13.22-6.78,19.54q-7.74,24-15,48.14c-1.1,3.65-2.74,5.26-6.77,5.72a134.13,134.13,0,0,0-26.76,5.76c-3.41,1.12-4.52-.07-5-3.14q-3.54-23.67-7.15-47.35C273.11,206.86,271.53,197.08,270,187.3ZM162.75,226.19a50.76,50.76,0,0,0,6.6,26.39c7.41,13,21,15.92,33,7.09,12.74-9.35,19.79-22.83,26.78-36.54,7.59-14.89,5.85-28.79-2.23-42.61-10.8-18.49-25.75-21-41.15-6.25C171.1,188.33,163.59,205.89,162.75,226.19Z"/><path class="cls-3" d="M132.4,187.22c.34,11.62-6.22,21.95-14.3,31.44-13.56,15.92-30.57,27.53-48.63,37.62-4.63,2.59-7,5.32-7.39,11C60.6,287.69,58.31,308,56.5,328.43c-.36,4-1.46,6.13-6,6.81-7.37,1.09-14.62,3.09-21.87,4.92-3.6.91-5.27.41-4.88-3.88q3.45-38.76,6.61-77.54c1.55-18.73,2.92-37.47,4.41-56.2,1-12.27,2-24.53,3-36.8.17-2.07.71-4,2.86-4.87,17-7.13,34.14-14.07,53-14.19C117,146.53,132.4,162.14,132.4,187.22ZM68,218.72c.29,1-1,2.62.66,3.39,1.29.6,2-.88,3-1.37A25.91,25.91,0,0,0,75,218.62c7.93-5.67,16.28-10.87,22-19.1,4.65-6.76,3.26-11.84-4.12-15.13-5.9-2.64-12.25-2.53-18.54-2.57-2.33,0-3.06,1.45-3.24,3.55C70.05,196.43,69,207.48,68,218.72Z"/><path class="cls-4" d="M186.15,327.28c-8.61,1.4-14.68,7.15-20.93,12.49-4,3.44-7.73,7.27-11.59,10.93-1.52-1.41.13-2.52.52-3.55,3.24-8.52,6.24-17.12,7.83-26.13.46-2.6,1.27-3.91,4.27-2.8,10,3.68,20.56,1.84,30.12,0,32.1-6.11,58.4-21.79,74.86-51.37,1.29-2.32.73-7,3.86-6.7,3.85.32,1.64,5,2.61,7.55,2.17,5.82,1.65,6,7.57,4.28,3.45-1,6.67-1.76,5.94,3.89-.17,1.35.87,2.81,1,4.25.29,2.52,1.43,2.16,3.33,1.58,12.21-3.67,24.38-7.67,37.28-8.14,2.9-.1,3.46-1.87,4.13-4,3.44-11.07,6.94-22.11,11.22-33.26,1,5.27,2.19,10.52,3,15.83.59,3.94,1.91,5.33,6.14,3.89,5.69-1.93,6.78-1.14,7.89,4.84.66,3.56,1.92,4.5,5.55,3.4,3.91-1.19,7.84-2.84,12.11-2.43l1.23,2.1c5.07,8.17,12.66,14.39,18.93,23.34-2.92-1-4.47-1.44-6-2-10.94-3.74-22.15-6.09-33.75-5.5-15.44.78-29.37,5.14-39.39,17.93l.08-.09-.81.62-.77,1.15-.25.09-.05.31-.89,1.12v0l-.73,1.2c-.31.05-.42.24-.32.56-.34.52-.68,1-1,1.56l-.1.27a50.62,50.62,0,0,0-6.59,23,50.65,50.65,0,0,0,.06,14.65c.3,3-.21,6.14,1.2,9a2.29,2.29,0,0,1-.89,3c-1.42,1-2-.4-2.77-1.08-1.91-1.78-3.72-3.66-5.57-5.5-1.1-2-2.14-4.11-4.52-5l.06.05a9.08,9.08,0,0,0-5.05-4.06l.06.05A41.41,41.41,0,0,0,274,327.94l-2.46-.09h-.26L270,327.6c-.39-1-1.25-.92-2.07-1a38,38,0,0,0-26.59,7.79.93.93,0,0,0-.66.4c-1.35,1.59-4.28,1.23-4.77,3.88l.08-.07-1.1,1.05.07-.08c-1.7,1.72-4.94,1.92-5.14,5.14l-.78.85c-1.53.38-2.23,1.71-3.27,2.7-2.54,2.39-3.41,5.82-5.63,8.36a2.52,2.52,0,0,1-.07.49c-.79,2.21-2.22,4.56-4.39,4.51-2.32-.05-1.89-3.18-2.28-4.81-1.9-7.89-4.06-15.56-8.81-22.35a16.59,16.59,0,0,0-5.66-5.19C195.25,324.94,190.69,326.2,186.15,327.28Z"/><path class="cls-3" d="M461.31,192.06c-10.61,1.16-10.38,1.18-9.09-9.35,2.29-18.64,4.27-37.31,5.41-56.06,1.18-19.58,2.65-39.14,2.92-58.76,0-3.16,1.2-4.43,4.42-4.48,11.14-.14,22.28-.43,33.42-.77,3.09-.09,4.11.76,3.37,4.06Q488.25,127.3,475,188c-.63,2.87-2.13,4-4.72,4.07C467.3,192.13,464.3,192.06,461.31,192.06Z"/><path class="cls-4" d="M317,92.87a88.08,88.08,0,0,0,11.38-11.14c2.39,0,3.17-2.14,4.33-3.53,4.82-5.81,9.42-11.79,14.15-17.67.65-.81,1.3-2.31,2.62-1.41.56.38.43,1.77.61,2.71-.19,1.8-.37,3.6-.55,5.41a36.18,36.18,0,0,0,.27,21.14c3.18,16.1,8.36,24.93,23,29,4,1.11,8.24-.8,12.09,1.29,1.72,4.94-.91,9.42-3,13-1.49,2.53-6.74,2-10.24,1.83-2.48-.11-2.23-3.48-2.41-5.45-.26-2.81-1.26-3.64-4-3.3q-15.81,1.92-31.68,3.55c-2.31.23-3.59,1.08-4.09,3.42-.95,4.46-4.08,8.18-4.5,12.84-.16,1.85-1.92,1.95-3.46,3.45-.72-6.54-1.49-12.53-2-18.53-1.08-11.91-3.06-23.72-3.42-35.69l-.08.07Z"/><path class="cls-4" d="M237.92,110.52l3.06-3c7.24-5,10.35-12.82,14.25-20.18,2.17-4.09,2.36-9.34,6.83-12.13.24.23.47.47.7.71a1.75,1.75,0,0,0,.42.61c2.13,8.53,5.7,16.29,12.15,22.48a18.4,18.4,0,0,0,2.39,1.65c-6.44,3.6-12.79,7.34-19.33,10.72-2.74,1.41-4.09,3-3.37,6.1.25,1.06.93,2.4-.28,3.21s-2.16-.38-3-1.07a32.11,32.11,0,0,0-11.38-6C238.75,113.15,237.57,112.46,237.92,110.52Z"/><path class="cls-4" d="M154.5,92c1.15-.46,1.67.69,2.52,1,2.32,3.2,5.77,4.6,9.28,5.94,9.82,7,20.71,12,31.54,17.17-10,3.5-19.29,8.13-27.22,15.28a25.69,25.69,0,0,1-3.67,2.34l-.07-.11c-1.24-3.23.48-7-2-10a78.93,78.93,0,0,0-5.9-17.71C159.22,100.66,154.58,97.05,154.5,92Z"/><path class="cls-4" d="M125,294.49a37.25,37.25,0,0,0-11.11,4.27c-3.67.71-6.8,2.73-10.1,4.33l-1.3.74c-1.12-.55-3.05,1.24-3.52-1.21l0,.05a1,1,0,0,0,1-1.06l-.06.08a67.41,67.41,0,0,0,12.15-14l0,.06c3.34-2.11,4.75-5.79,7-8.76,2-2.57,3.31-2.74,4.41.69a76.47,76.47,0,0,0,3.67,9.7C128.47,292.19,127.51,293.55,125,294.49Z"/><path class="cls-4" d="M421.67,189.25c5.66,2,12,2,18.12,5.41-7.21,2.86-13.84,3.66-20.51,4.25C418,195.17,420.44,192.36,421.67,189.25Z"/><path class="cls-4" d="M136,157.78l11.74-2.69c1,.79,1.39,1.5.48,2.81-1.93,2.78-3.62,5.74-5.68,9.06C141,163.06,136.58,161.89,136,157.78Z"/><path class="cls-2" d="M454.84,84.58c.09,3.74.87,7.52-1,11.12-.67,1.29-1.6,2.39-3.08,1.77-1.29-.55-1-2.08-.65-3.1,1-3.39,2.28-6.72,3.45-10.08Z"/><path class="cls-4" d="M167,133.69l-.49.74c-.06-.14-.22-.37-.18-.41a5.45,5.45,0,0,1,.6-.44Z"/><path class="cls-1" d="M323.88,297.72c10-12.79,23.95-17.15,39.39-17.93,11.6-.59,22.81,1.76,33.75,5.5,1.54.53,3.09,1,6,2-6.27-8.95-13.86-15.17-18.93-23.34,4.16,1.13,5.19,5.33,7.78,8,5.61,5.76,11,11.77,16.16,18.06-6.88-1-12.92-4.26-19.47-6-16.38-4.21-32.6-4.64-48.43,1.74A36.47,36.47,0,0,0,328.41,294C327,295.36,326,297.21,323.88,297.72Z"/><path class="cls-1" d="M241.34,334.41a38,38,0,0,1,26.59-7.79c.82.06,1.68,0,2.07,1a41.4,41.4,0,0,0-26.38,6.28A2.39,2.39,0,0,1,241.34,334.41Z"/><path class="cls-1" d="M274,327.94A41.41,41.41,0,0,1,295,338.69Z"/><path class="cls-1" d="M112.09,287.73a67.41,67.41,0,0,1-12.15,14C102.62,295.84,107.23,291.68,112.09,287.73Z"/><path class="cls-1" d="M220.14,356.64c2.22-2.54,3.09-6,5.63-8.36,1-1,1.74-2.32,3.27-2.7C227.16,350.14,223.68,353.41,220.14,356.64Z"/><path class="cls-1" d="M103.81,303.09c3.3-1.6,6.43-3.62,10.1-4.33A16.13,16.13,0,0,1,103.81,303.09Z"/><path class="cls-1" d="M186.15,327.28c4.54-1.08,9.1-2.34,12.78,2A31.47,31.47,0,0,0,186.15,327.28Z"/><path class="cls-1" d="M99,302.62c.47,2.45,2.4.66,3.52,1.21-1.68,2.8-4.48,1.32-7.3,2.34C96.13,303.86,96.65,302.24,99,302.62Z"/><path class="cls-1" d="M312.49,342.16a50.65,50.65,0,0,1-.06-14.65A50.3,50.3,0,0,1,312.49,342.16Z"/><path class="cls-1" d="M229.82,344.73c.2-3.22,3.44-3.42,5.14-5.14A9.12,9.12,0,0,1,229.82,344.73Z"/><path class="cls-1" d="M235.91,338.69c.49-2.65,3.42-2.29,4.77-3.88C240.09,337.34,237.94,337.94,235.91,338.69Z"/><path class="cls-1" d="M295,338.64A9.08,9.08,0,0,1,300,342.7,5.08,5.08,0,0,1,295,338.64Z"/><path class="cls-1" d="M299.94,342.65c2.38.86,3.42,2.94,4.52,5C302.87,346,299.77,345.83,299.94,342.65Z"/><path class="cls-1" d="M443,193.44l-.47.91a9,9,0,0,1-1-.83s.28-.58.36-.56A6.65,6.65,0,0,1,443,193.44Z"/><path class="cls-1" d="M320.13,302.71c-.1-.32,0-.51.32-.56.08.26.3.63.21.77C320.39,303.3,320.15,303.19,320.13,302.71Z"/><path class="cls-1" d="M319,304.54l.1-.27.43.44Z"/><path class="cls-1" d="M322.08,299.8l.05-.31.25-.09c.07.23.15.46.23.68Z"/><path class="cls-1" d="M323.15,298.25l.81-.62C323.93,298.15,323.89,298.65,323.15,298.25Z"/><path class="cls-1" d="M321.18,301v0l.32.09Z"/><path class="cls-1" d="M100,301.61a1,1,0,0,1-1,1.06C98.78,301.79,99,301.35,100,301.61Z"/><polygon class="cls-1" points="271.24 327.85 271.5 327.85 271.38 328.13 271.24 327.85"/><path class="cls-1" d="M234.89,339.67l1.1-1.05A1.07,1.07,0,0,1,234.89,339.67Z"/><path class="cls-1" d="M350.08,61.83c-.18-.94-.05-2.33-.61-2.71-1.32-.9-2,.6-2.62,1.41-4.73,5.88-9.33,11.86-14.15,17.67-1.16,1.39-1.94,3.54-4.33,3.53,6.21-8.18,12-16.67,19.66-23.69A31.84,31.84,0,0,0,351.14,54C351.2,57.14,352.8,59.66,350.08,61.83Z"/><path class="cls-1" d="M262.06,75.16c-4.47,2.79-4.66,8-6.83,12.13-3.9,7.36-7,15.21-14.25,20.18a142.47,142.47,0,0,0,17.61-32.11c.52-1.32,1.21-3,3.15-2.52C263.05,73.2,262.82,74.26,262.06,75.16Z"/><path class="cls-1" d="M154.5,92c.08,5.08,4.72,8.69,4.49,13.87-2.22-3.8-4.45-7.6-6.65-11.41a2.56,2.56,0,0,1,.17-3.17C153.29,90.48,154,91.36,154.5,92Z"/><path class="cls-1" d="M166.3,98.9c-3.51-1.34-7-2.74-9.28-5.94C160.76,93.94,164,95.64,166.3,98.9Z"/><path class="cls-1" d="M263.18,76.48a1.75,1.75,0,0,1-.42-.61c.21-.09.52-.31.58-.25C263.72,76,263.66,76.27,263.18,76.48Z"/><path class="cls-1" d="M317,92.87l-1,1C315.92,93.13,316.29,92.82,317,92.87Z"/><path class="cls-3" d="M477,234c-.18,11-10.8,24.16-21.21,26.4-7.62,1.64-15.69-4.31-16.89-12.44-1.57-10.65,9.53-26.89,20-29.22S477.19,223.16,477,234Z"/><path class="cls-1" d="M162.75,226.19c.84-20.3,8.35-37.86,23-51.92,15.4-14.78,30.35-12.24,41.15,6.25,8.08,13.82,9.82,27.72,2.23,42.61-7,13.71-14,27.19-26.78,36.54-12,8.83-25.58,5.9-33-7.09A50.76,50.76,0,0,1,162.75,226.19Zm18.1,7.28c-.16,8.27,2.38,15.88,4.83,23.44.6,1.85,1.52,4,5.35,3.09,8.79-2,14.26-7.83,19.52-14.16,5.89-7.1,9.62-15.5,14-23.52,7.71-13.94,6-26.95-1.55-40-3.29-5.67-6.11-6.48-11.6-3.09C191.31,191.73,183.67,211.28,180.85,233.47Z"/><path class="cls-1" d="M68,218.72c1-11.24,2.06-22.29,3-33.35.18-2.1.91-3.57,3.24-3.55,6.29,0,12.64-.07,18.54,2.57,7.38,3.29,8.77,8.37,4.12,15.13-5.67,8.23-14,13.43-22,19.1a25.91,25.91,0,0,1-3.35,2.12c-1,.49-1.69,2-3,1.37C67,221.34,68.28,219.73,68,218.72Zm20.43-20c.34.64-.54,2.9,1.58,2.32,2.28-.63,3.48-3.09,4.14-5.12.53-1.64-1.58-1.61-2.82-1.63C88.5,194.22,88.32,196.2,88.42,198.7Z"/><path class="cls-4" d="M180.85,233.47c2.82-22.19,10.46-41.74,30.6-54.2,5.49-3.39,8.31-2.58,11.6,3.09,7.55,13,9.26,26,1.55,40-4.43,8-8.16,16.42-14,23.52C205.29,252.17,199.82,258,191,260c-3.83.87-4.75-1.24-5.35-3.09C183.23,249.35,180.69,241.74,180.85,233.47Z"/><path class="cls-2" d="M88.42,198.7c-.1-2.5.08-4.48,2.9-4.43,1.24,0,3.35,0,2.82,1.63-.66,2-1.86,4.49-4.14,5.12C87.88,201.6,88.76,199.34,88.42,198.7Z"/></g></g></g></svg>